Coordinates
version=1
nRows=22
nColumns=24
inDegrees=yes

Units are S.I. units (second, meters, Newtons, ...)
Angles are in degrees.

endheader
time	pelvis_tilt	pelvis_list	pelvis_rotation	pelvis_tx	pelvis_ty	pelvis_tz	hip_flexion_r	hip_adduction_r	hip_rotation_r	knee_angle_r	ankle_angle_r	subtalar_angle_r	mtp_angle_r	hip_flexion_l	hip_adduction_l	hip_rotation_l	knee_angle_l	ankle_angle_l	subtalar_angle_l	mtp_angle_l	lumbar_extension	lumbar_bending	lumbar_rotation
      0.55800000	     -0.02559382	      7.41329079	      0.36660736	     -0.79381715	      0.99206661	      0.23054780	     24.69894226	     -6.36584476	     -1.61040123	     -1.57088024	      7.23948090	     -8.12308538	      0.74535239	    -18.88503794	     10.37876270	      7.66307655	     -5.79019152	      8.03771843	    -14.67566225	      0.86779716	     -2.44018760	     -9.22785557	     -3.14203438
      0.56216667	     -0.05765551	      7.34476295	      0.44720008	     -0.78755872	      0.99148770	      0.23088900	     24.73667074	     -6.28494693	     -1.43649473	     -1.99837811	      7.20768612	     -8.33640581	      6.75465383	    -18.90376750	     10.24801253	      7.53771577	     -6.41368319	      8.02037188	    -14.36738088	      7.06995210	     -2.34979648	     -9.11822524	     -3.11795943
      0.56633333	     -0.07364914	      7.26691829	      0.52996562	     -0.78127226	      0.99097794	      0.23122990	     24.74567093	     -6.19149597	     -1.22505674	     -2.47084190	      7.21199636	     -8.51656741	      6.73060337	    -18.93415139	     10.11321501	      7.48870536	     -7.05976345	      8.05057492	    -14.09381738	      7.14076093	     -2.28366343	     -9.00482228	     -3.31663532
      0.57050000	     -0.08803074	      7.17136512	      0.59676752	     -0.77491831	      0.99049376	      0.23161642	     24.73771149	     -6.06850568	     -0.96366310	     -2.95880092	      7.15378886	     -8.77913654	      6.71932837	    -18.94607504	      9.96058661	      7.36636528	     -7.74211318	      8.07686230	    -13.74380130	      7.25464332	     -2.21138305	     -8.86488079	     -3.39748580
      0.57466667	     -0.09691379	      7.07006086	      0.66267688	     -0.76852159	      0.99004765	      0.23200568	     24.71729620	     -5.93693714	     -0.71171848	     -3.47575632	      7.04321289	     -9.06063337	      6.72447975	    -18.94108774	      9.80320274	      7.22385106	     -8.46740718	      8.06877347	    -13.39573198	      7.40641861	     -2.13288271	     -8.71539682	     -3.48708924
      0.57883333	     -0.11265247	      6.95362140	      0.72316561	     -0.76207472	      0.98961717	      0.23240426	     24.70155040	     -5.78472257	     -0.44876741	     -4.02633229	      6.92907009	     -9.35185841	      6.74046338	    -18.91647670	      9.63512233	      7.09471990	     -9.21680877	      8.05054278	    -13.10246333	      7.54512250	     -2.04525059	     -8.54290027	     -3.57049159
      0.58300000	     -0.12558163	      6.82889348	      0.78481894	     -0.75558150	      0.98922810	      0.23282911	     24.66734716	     -5.62051366	     -0.20464895	     -4.57331920	      6.67528895	     -9.68904280	      6.77024633	    -18.85657725	      9.44996927	      6.87112135	    -10.03498147	      7.97762199	    -12.68792245	      7.73645091	     -1.94645478	     -8.36771630	     -3.65069386
      0.58716667	     -0.11214558	      6.70512456	      0.83422318	     -0.74907881	      0.98888360	      0.23326904	     24.62168774	     -5.45460940	     -0.01014676	     -5.17223337	      6.44116277	     -9.92695942	      7.63576687	    -18.79169991	      9.26154697	      6.56678375	    -10.90098194	      7.86126471	    -12.23396326	     12.07162414	     -1.88807900	     -8.19459602	     -3.60823792
      0.59133333	     -0.13690859	      6.55827598	      0.89740807	     -0.74249895	      0.98855872	      0.23370425	     24.58067925	     -5.26287596	      0.23080867	     -5.73045634	      6.08422185	    -10.32747316	      7.63491996	    -18.68995503	      9.05935394	      6.39792433	    -11.76634309	      7.67264859	    -11.97327581	     12.12070282	     -1.76315084	     -7.98890695	     -3.77016714
      0.59550000	     -0.14099105	      6.42221891	      0.95609126	     -0.73594509	      0.98828148	      0.23417813	     24.52504608	     -5.07889145	      0.45855680	     -6.31237872	      5.73151445	    -10.69878169	      7.65011849	    -18.54844537	      8.85391070	      6.09343161	    -12.74082169	      7.53440734	    -11.49250180	     12.23865068	     -1.67486505	     -7.80920189	     -3.80841505
      0.59966667	     -0.13519093	      6.27418267	      1.00097203	     -0.72936359	      0.98803392	      0.23467184	     24.46696595	     -4.87832524	      0.65253210	     -6.92020521	      5.35476929	    -11.03554894	      7.68079012	    -18.39179144	      8.63817406	      5.76666667	    -13.75801154	      7.33995441	    -11.03439016	     12.42976947	     -1.58929559	     -7.60867312	     -3.84208140
      0.60383333	     -0.14759218	      6.12412434	      1.04018565	     -0.72276304	      0.98779915	      0.23518312	     24.43275232	     -4.67271143	      0.83780399	     -7.54662206	      4.95780007	    -11.35927109	      7.72315129	    -18.19192642	      8.41899625	      5.42618421	    -14.80982563	      7.08964906	    -10.58844082	     12.68762626	     -1.47821200	     -7.40320248	     -3.86669437
      0.60800000	     -0.15099489	      5.96707923	      1.07541348	     -0.71616183	      0.98760766	      0.23571405	     24.39159213	     -4.45908638	      0.99890480	     -8.18540890	      4.55277793	    -11.64990885	      7.77434120	    -17.96369092	      8.18775849	      5.05537165	    -15.92222215	      6.80170843	    -10.12857695	     13.01032513	     -1.37629283	     -7.19390723	     -3.88274402
      0.61216667	     -0.16109861	      5.80487800	      1.10226400	     -0.70955623	      0.98743027	      0.23626922	     24.36011874	     -4.23800842	      1.14319948	     -8.83110943	      4.14595088	    -11.90102196	      7.82525021	    -17.69108893	      7.94665588	      4.64658215	    -17.09822278	      6.44031372	     -9.66874617	     13.36409325	     -1.26077483	     -6.97759091	     -3.88541451
      0.61633333	     -0.13373404	      5.61007966	      1.12398241	     -0.70293344	      0.98735209	      0.23684300	     24.27274979	     -3.98052209	      1.28770824	     -9.45432417	      3.66892638	    -12.30087052	      8.72575358	    -17.44072856	      7.66310730	      4.22976378	    -18.27842982	      5.94559855	     -9.33581216	     20.18744355	     -1.18793355	     -6.70456547	     -3.87234178
      0.62050000	     -0.13445779	      5.47471338	      1.12333980	     -0.69640553	      0.98720978	      0.23744385	     24.29679977	     -3.78649817	      1.34331388	    -10.23106658	      3.38238545	    -12.32514034	      8.71603760	    -17.10707694	      7.44243450	      3.77346809	    -19.55463732	      5.48814065	     -8.84225949	     20.26500930	     -1.09586073	     -6.52671673	     -3.86259396
      0.62466667	     -0.13787233	      5.31386380	      1.12786395	     -0.68986617	      0.98712319	      0.23806759	     24.29271932	     -3.56353094	      1.43215580	    -10.95365222	      3.04191666	    -12.49434121	      8.70320870	    -16.73444473	      7.18578825	      3.31723315	    -20.88511106	      4.98299089	     -8.38618872	     20.41241648	     -0.99573313	     -6.31189276	     -3.83531659
      0.62883333	     -0.12415997	      5.14828775	      1.12280677	     -0.68336971	      0.98707469	      0.23871474	     24.27777898	     -3.33457307	      1.50581238	    -11.69010280	      2.73918212	    -12.62687598	      8.68778957	    -16.34330295	      6.91477986	      2.83410060	    -22.26893672	      4.42064505	     -7.93138345	     20.61895076	     -0.91870305	     -6.09193053	     -3.79708878
      0.63300000	     -0.12255868	      4.98754546	      1.11576337	     -0.67689338	      0.98705397	      0.23937797	     24.26854496	     -3.11184200	      1.57714809	    -12.41249869	      2.48266660	    -12.69562611	      8.67185525	    -15.90282811	      6.64421312	      2.36296799	    -23.69874481	      3.76358330	     -7.55484165	     20.82058511	     -0.82027772	     -5.88843135	     -3.75964129
      0.63716667	     -0.10590107	      4.82439306	      1.09732222	     -0.67049888	      0.98703667	      0.24006413	     24.28144222	     -2.88445844	      1.61162579	    -13.21118445	      2.25719516	    -12.80145843	      8.64309120	    -15.44165570	      6.36055355	      1.87659635	    -25.18634083	      3.13839931	     -7.10740751	     21.13426002	     -0.76544882	     -5.66438294	     -3.69999296
      0.64133333	     -0.08992038	      4.65276752	      1.08418106	     -0.66411422	      0.98709472	      0.24078047	     24.25124675	     -2.64556357	      1.68223881	    -13.92257625	      2.00974612	    -12.95157919	      8.01229516	    -14.95201229	      6.05256193	      1.38886144	    -26.68264010	      2.30163786	     -6.82947195	     27.21544375	     -0.69692856	     -5.45163672	     -3.64243035
      0.64550000	     -0.05636200	      4.49722189	      1.04850975	     -0.65780042	      0.98715278	      0.24149711	     24.23932470	     -2.42671429	      1.69936605	    -14.70593638	      1.96260143	    -12.85503646	      8.01204802	    -14.45203872	      5.76686236	      0.91518427	    -28.23256248	      1.53429078	     -6.53408014	     27.24364819	     -0.65751231	     -5.24456705	     -3.59553886
